<mxfile host="app.diagrams.net" modified="2024-05-27T07:08:24.469Z" agent="Mozilla/5.0 (X11; Ubuntu; Linux x86_64; rv:126.0) Gecko/20100101 Firefox/126.0" version="24.4.8" etag="kLrKxvhZEwlEA0a_V-92" type="github">
  <diagram name="Страница — 1" id="pMg7mxdptYLpC6OiXaBn">
    <mxGraphModel>
      <root>
        <mxCell id="0" />
        <mxCell id="1" parent="0" />
      </root>
    </mxGraphModel>
  </diagram>
</mxfile>
